<?xml version="1.0" standalone="no"?>
<!DOCTYPE svg PUBLIC "-//W3C//DTD SVG 20010904//EN"
 "http://www.w3.org/TR/2001/REC-SVG-20010904/DTD/svg10.dtd">
<svg version="1.0" xmlns="http://www.w3.org/2000/svg"
 width="708.000000pt" height="241.000000pt" viewBox="0 0 708.000000 241.000000"
 preserveAspectRatio="xMidYMid meet">

<g transform="translate(0.000000,241.000000) scale(0.100000,-0.100000)"
fill="#ffff" stroke="none">
<path d="M1493 1901 c-59 -27 -94 -84 -100 -163 -7 -82 10 -140 53 -188 79
-88 239 -68 288 35 19 39 15 55 -14 55 -12 0 -25 -13 -35 -34 -22 -46 -70 -71
-124 -63 -76 10 -115 66 -115 167 0 111 44 164 137 164 43 0 53 -4 77 -31 15
-17 29 -36 32 -43 3 -10 11 -11 32 -4 l27 9 -23 35 c-53 78 -144 102 -235 61z"/>
<path d="M1915 1903 c-63 -33 -97 -82 -110 -161 -14 -88 34 -190 108 -229 49
-25 134 -21 186 8 138 77 129 315 -13 380 -50 23 -130 24 -171 2z m165 -52
c88 -62 78 -251 -16 -296 -102 -48 -204 27 -204 150 0 52 26 121 53 143 41 35
121 36 167 3z"/>
<path d="M4333 1901 c-64 -30 -97 -87 -101 -176 -7 -124 45 -201 151 -225 132
-29 237 66 237 216 -1 153 -148 247 -287 185z m167 -49 c62 -47 85 -165 46
-240 -35 -68 -127 -92 -194 -52 -69 43 -92 170 -45 251 37 64 134 84 193 41z"/>
<path d="M2270 1705 l0 -205 25 0 25 0 0 172 c0 100 4 168 9 163 5 -6 33 -83
62 -172 50 -153 55 -163 79 -163 23 0 28 10 73 143 79 229 75 228 76 30 l1
-173 25 0 25 0 0 205 0 205 -39 0 -39 0 -58 -170 c-32 -94 -61 -167 -65 -163
-4 5 -31 81 -60 171 l-54 162 -42 0 -43 0 0 -205z"/>
<path d="M2760 1705 l0 -205 25 0 c25 0 25 1 25 84 l0 84 93 4 c100 4 135 19
155 64 27 59 6 140 -43 162 -15 7 -73 12 -140 12 l-115 0 0 -205z m241 136
c26 -32 24 -67 -6 -96 -22 -22 -32 -25 -105 -25 l-80 0 0 76 0 76 86 -3 c76
-4 88 -7 105 -28z"/>
<path d="M3140 1705 l0 -205 130 0 130 0 0 25 0 25 -100 0 -100 0 0 180 0 180
-30 0 -30 0 0 -205z"/>
<path d="M3470 1705 l0 -205 155 0 155 0 0 25 0 25 -130 0 -130 0 0 70 0 70
115 0 115 0 0 25 0 25 -115 0 -115 0 0 65 0 65 125 0 c118 0 125 1 125 20 0
19 -7 20 -150 20 l-150 0 0 -205z"/>
<path d="M3846 1898 c4 -7 34 -50 66 -94 32 -45 58 -84 58 -88 0 -4 -34 -52
-75 -106 -41 -54 -75 -102 -75 -105 0 -3 13 -5 29 -5 26 0 37 11 86 80 31 44
60 82 64 84 5 3 35 -32 67 -79 54 -77 62 -84 92 -85 l34 0 -48 68 c-26 37 -61
85 -76 106 -15 21 -28 42 -28 46 0 4 29 46 65 93 36 48 65 89 65 92 0 3 -11 5
-25 5 -19 0 -37 -17 -81 -75 l-56 -75 -52 73 c-44 61 -57 72 -85 75 -25 3 -31
0 -25 -10z"/>
<path d="M1190 833 c-145 -296 -279 -568 -297 -606 l-33 -67 165 2 166 3 28
65 27 65 223 0 222 0 27 -65 28 -65 166 -3 167 -2 -156 317 c-85 175 -219 447
-296 606 -98 200 -145 287 -157 287 -11 0 -93 -157 -280 -537z m344 -153 c31
-77 56 -142 56 -145 0 -3 -54 -5 -120 -5 -66 0 -120 3 -120 8 0 17 115 290
121 286 4 -2 32 -67 63 -144z"/>
<path d="M5520 1347 c-106 -33 -156 -61 -164 -92 -4 -14 -7 -69 -7 -121 0 -56
-4 -92 -10 -89 -5 4 -9 -2 -9 -12 -1 -12 -7 -6 -20 17 -10 19 -17 43 -14 53 3
10 1 24 -5 31 -6 7 -12 30 -13 50 l-3 38 -53 -58 c-60 -66 -124 -190 -141
-272 -15 -74 -13 -216 4 -290 22 -94 77 -193 149 -269 300 -319 860 -243 1050
142 144 290 40 646 -235 808 -104 61 -175 79 -324 83 -114 4 -139 1 -205 -19z
m327 -293 c66 -32 126 -100 154 -173 17 -46 20 -72 17 -146 -5 -110 -32 -170
-107 -237 -155 -140 -398 -85 -490 111 -22 48 -26 69 -26 146 0 76 5 99 26
145 78 164 266 232 426 154z m-537 -43 c0 -3 -4 -12 -9 -19 -6 -10 -10 -7 -13
11 -4 18 -1 24 9 20 7 -3 13 -8 13 -12z m39 -123 c0 -7 -4 -22 -9 -33 -7 -17
-9 -15 -9 13 -1 17 4 32 9 32 6 0 10 -6 9 -12z"/>
<path d="M2152 1208 l3 -133 178 -3 177 -2 0 -455 0 -455 160 0 160 0 0 455 0
455 180 0 180 0 0 135 0 135 -520 0 -521 0 3 -132z"/>
<path d="M3360 750 l0 -590 160 0 160 0 0 590 0 590 -160 0 -160 0 0 -590z"/>
<path d="M3822 1332 c2 -5 131 -277 288 -605 189 -396 290 -597 300 -597 10 0
110 198 300 596 157 328 287 601 288 606 2 5 -68 7 -163 6 l-167 -3 -126 -312
c-70 -172 -129 -313 -132 -313 -3 0 -38 82 -79 183 -41 100 -99 242 -129 315
l-54 132 -165 0 c-91 0 -163 -4 -161 -8z"/>
</g>
</svg>
