<?xml version="1.0" encoding="utf-8"?>
<svg xmlns="http://www.w3.org/2000/svg" width="209.903mm" height="296.686mm" version="1.1" style="shape-rendering:geometricPrecision; text-rendering:geometricPrecision; image-rendering:optimizeQuality; fill-rule:evenodd; clip-rule:evenodd" viewBox="0 0 20990.28 29668.6">
  <defs>
    <style type="text/css">
   
    @font-face { font-family:"Geometric 231";font-variant:normal;font-style:normal;font-weight:500;src:url("#FontID2") format(svg)}
    @font-face { font-family:"Arial";font-variant:normal;font-style:normal;font-weight:normal;src:url("#FontID1") format(svg)}
    @font-face { font-family:"Town 10 Display Black";font-variant:normal;font-style:normal;font-weight:900;src:url("#FontID0") format(svg)}
    .str0 {stroke-width:1.67;stroke-miterlimit:22.9256}
    .str2 {stroke:#F58634;stroke-width:20;stroke-miterlimit:22.9256}
    .str1 {stroke:white;stroke-width:7.62;stroke-miterlimit:22.9256}
    .fil1 {fill:#F58634}
    .fil0 {fill:white}
    .fnt2 {font-weight:500;font-size:1317.48px;font-family:'Geometric 231'}
    .fnt1 {font-weight:normal;font-size:1571.7px;font-family:'Arial'}
    .fnt0 {font-weight:900;font-size:4569.74px;font-family:'Town 10 Display Black'}
   
  </style>
  </defs>
  <g id="Camada_x0020_1">
    <g transform="matrix(1 0 0 1 -7446.95 821.114)">
      <text x="10495.14" y="14834.3" class="fil0 str1 fnt0" style="white-space: pre;">ATIVO</text>
    </g>
    <g transform="matrix(1 0 0 1 -5487.48 -2804.63)">
      <text x="10495.14" y="14834.3" class="fil0 fnt1" style="white-space: pre;">COMPLEXO</text>
    </g>
    <path class="fil1 str2" d="M16419.49 11707.86c-240.91,0.07 -244.41,-23.29 -245.97,91.81l-16.37 -2.39c19.05,-19.37 15.73,6.45 11.3,-25.89 -2.41,-17.61 -12.87,-19.83 -13.92,-24.75 -0.58,-2.71 -2.93,-2.54 -3.9,-4.18 15.29,-20.3 19.18,-8.89 25.64,-34.27 -20.79,-19.61 -46.31,-26.92 -54.22,-52.28 -8.64,-27.67 -0.41,-67.83 -3.75,-98.02 -12.81,-115.47 -19.92,-282.24 -13.67,-398.01 1.24,-23.08 3.94,-73.22 6.8,-82.76 9.29,-30.86 6.11,7.47 10.95,-40.7 2.72,-27 -6.28,-15.19 9.11,-41.01l356.61 26c46.54,8.64 -1.17,-1.82 29.01,12.92 17.94,8.75 182.23,14.06 223.16,-2.24l21.63 -9.19c10.91,55.12 40.43,49.19 -12.29,102.76 25.88,21.19 21.5,33.39 15.28,72.01 -5.29,32.86 -3.83,57.41 -4.22,93.06 -0.73,65.83 -12.2,15.28 -19.6,74.8 -9.51,76.31 -13.46,26.9 -17.22,54.82l-9.05 239.87c-15.53,10.47 -16.34,7.21 -20,9.07 -1.39,0.71 -3.21,1.52 -4.57,2.28 -34.36,18.87 1.41,10.01 -34.07,20.4 -31.36,9.18 -46.56,-10.53 -156.79,13.66 -24.3,5.33 -54.2,2.22 -79.88,2.23zm2076.04 -342.57c57.32,-5.83 73.11,22.84 122.93,35.68 57.5,14.82 165.79,-43.79 220.7,-70.25 34.32,-16.55 80.67,-20.01 105.85,-50.07 -27.38,-5.74 -46.14,-10.67 -71.65,-18.84 -48.88,-15.65 -26.01,-0.18 -65.32,-1.6 -8.54,-15.76 -13.53,-14.07 -13.47,-35.72 83.8,-39.3 105.61,26.56 158.08,7.14 -3.71,-31.66 4.02,-14.89 -14.05,-33.69 -5.48,-5.71 -13.96,-9.68 -21.48,-12.15l-207.48 -12.06c-49.8,-1.18 -97.99,-9.24 -144.42,-7.62 -36.38,1.25 -36.57,14.07 -63.24,3.39 -32.19,-12.89 -3.37,-12.77 -52.8,-16.68 -40.31,-3.18 -98.9,-15.42 -137.69,-14.39 -40.48,1.09 -27.95,9.36 -62.18,12.72 -48.34,4.76 -32.62,-3.66 -48.51,-16.05 -22.77,-17.73 -252.18,-34.72 -264.76,-34.71 5.96,42.99 17.28,27.22 14.59,54.61 -54.38,8.12 -48.87,-8.95 -76.29,-29.34 3.56,-32.29 1.28,-7.98 9.14,-25.26l5.37 -9.83c-45.44,-4.64 -85.24,-15.82 -125.27,-17.21 -137.54,-4.78 -274.73,-18.95 -411.41,-20.32 -75.17,-0.74 -533.12,-0.18 -562.46,-14.51 -7.99,-13.74 -5.09,-1.58 -6.89,-22.32l27.53 -163.17c42.69,-154.94 34.01,-448.54 35.82,-611.7 5.18,-469.38 110.76,-516.04 141.39,-717.63 17.62,-116.03 4.89,-296.27 -13.59,-404.28 -16.5,-96.47 5.64,-102.81 -81.55,-138.83 -136.98,-56.57 -299.9,-106.04 -441.69,-23.57 -78.37,45.56 -100,122.55 -108.04,214.83 -7.08,81.3 -27.07,116.74 -34.76,178.79l38.26 32.29c33.07,32.69 17.74,115.03 7,154.45 -52.45,192.55 -114.53,160.37 -176.47,269.25 -123.26,216.66 -19.26,482.41 -21.34,722.79 -0.74,85.82 -17.69,146.12 -15.4,239.86 1.52,61.82 -1.32,114.07 -13.87,171.62 -16.27,74.53 -59.97,36.83 -124.65,35.02 -36.88,-1.03 -72.91,-2.3 -109.89,-2.6 -273.67,-2.29 -791.54,77.67 -1014.65,-5.38 -114.28,-42.56 -251.26,-48.02 -383.1,-31.75 -53.55,6.61 -262.2,5.54 -301.22,26.38 -43.55,23.27 -85.15,57.31 -120.92,91.74 -53.54,51.56 1.82,288.92 40.73,342.16 15.29,20.91 6.27,3.98 22.37,33.31 29.27,53.31 69.48,112.7 119.91,146.79 67.77,45.79 176.61,61.68 258.85,70.45 38.92,4.13 42.72,17.66 82.24,19.8 30.02,-63.52 10.02,-80.74 164.78,-77.48 222.41,4.69 212.98,201.67 514.18,194.59 73.15,-1.72 137.31,-15.49 204.89,-33.71l187.98 -44.27c117.53,-16.63 233.85,4.17 352.24,-9.76 22.87,-2.7 57.15,-9.07 84.28,-5.15l18.02 5.26c33.99,-52.98 27.09,570.58 34.07,621.1l34.79 106.33c40.13,104.07 93.28,175.05 69.3,317.18 -19.59,116.22 -9.1,246.26 35.31,330.51 -0.71,-81.42 -36.21,-154.45 -32.28,-231.67 33.79,-1.67 34.42,10.86 54.63,32.09 124.6,130.92 -15.7,81.25 18.49,179.55 15.48,44.48 38.07,55.99 39.17,107.61 -74.34,43.33 2.39,72.8 34.84,113.89 45.86,58.07 -5.35,112.8 -5.6,176.14 -0.1,27.46 121.64,255.93 144.87,271.82 18.01,-31.51 18.65,-83.92 19.69,-117.06 0.69,-21.97 17.9,-13.55 29.26,0.96 26.36,33.65 3.17,92.4 11.27,119.16 5.53,2.21 1.31,4.42 14.74,2.9 44.05,-4.96 6.22,-186.12 5.38,-222.86 -1.07,-46.44 1.52,-93.73 -3.96,-139.67 -4.08,-34.39 -11.14,-39.37 -14.01,-54.94 -7,-37.85 5.54,-14.38 11.9,-52.75 9.35,-56.42 -1.49,-238.35 6.37,-262.03 25.46,-76.63 20.08,-168.21 32.11,-247.6 51.86,-342.23 12.21,-722.13 53.14,-1065.04 135.72,-21.28 264.16,-29.83 401.22,-44.01 101.97,-10.54 379.83,-11.1 418.85,-19.55 198.98,-43 238.52,-140.13 438.21,-88.44 71.11,18.41 236.48,5.87 290.08,-27.98l-26.57 -5.62c-66.89,1.03 -121.1,34.97 -193.13,26.53 -4.19,-38.45 -5.8,-26.3 14.56,-47.12 8.77,-8.99 20.5,-21.04 27.89,-26.69 107.17,-81.8 83.54,-9.01 122.16,6.08 88.82,-1.38 92.39,-43.04 150.83,-48.15 14.5,22.57 2.65,21.8 13.71,43.76 38.86,1.72 45.32,-19.41 67.15,-38.76 28.08,-24.89 28.01,-12.62 54.94,-46.69z"/>
    <path class="fil1 str2" d="M16176.27 11708.19c-6.46,25.38 -10.35,13.97 -25.64,34.27 0.97,1.64 3.32,1.47 3.9,4.18 1.05,4.92 11.51,7.14 13.92,24.75 4.43,32.34 7.75,6.52 -11.3,25.89l16.37 2.39c1.56,-115.1 5.06,-91.74 245.97,-91.81 25.68,-0.01 55.58,3.1 79.88,-2.23 110.23,-24.19 125.43,-4.48 156.79,-13.66 35.48,-10.39 -0.29,-1.53 34.07,-20.4 1.36,-0.76 3.18,-1.57 4.57,-2.28 3.66,-1.86 4.47,1.4 20,-9.07l9.05 -239.87c3.76,-27.92 7.71,21.49 17.22,-54.82 7.4,-59.52 18.87,-8.97 19.6,-74.8 0.39,-35.65 -1.07,-60.2 4.22,-93.06 6.22,-38.62 10.6,-50.82 -15.28,-72.01 52.72,-53.57 23.2,-47.64 12.29,-102.76l-21.63 9.19c-40.93,16.3 -205.22,10.99 -223.16,2.24 -30.18,-14.74 17.53,-4.28 -29.01,-12.92l-356.61 -26c-15.39,25.82 -6.39,14.01 -9.11,41.01 -4.84,48.17 -1.66,9.84 -10.95,40.7 -2.86,9.54 -5.56,59.68 -6.8,82.76 -6.25,115.77 0.86,282.54 13.67,398.01 3.34,30.19 -4.89,70.35 3.75,98.02 7.91,25.36 33.43,32.67 54.22,52.28z"/>
    <path class="fil1 str2" d="M18834.86 11466.14c44.56,9.14 292.22,-29.95 325.21,-45.78 4.98,-25.04 5.01,-30.96 -5.04,-53.83 -41.45,-3.82 -78.19,40.41 -150.84,36.88l-41.13 -43.75c-43.08,-0.26 -132.18,61.51 -128.2,106.48z"/>
    <path class="fil1 str2" d="M16467.04 13874.38c-70.55,-123.34 98.49,-55.23 -28.24,-184.06 -21.19,-21.55 -33.24,-46.72 -64.15,-46.19 -13.47,29.26 19.18,130.41 31.02,168.51 13.61,43.82 24.82,129.71 61.8,160.19 76.12,-8.23 27.53,-49.55 -0.43,-98.45z"/>
    <path class="fil1 str2" d="M16719.28 14550.92c4.62,-30.17 -5.38,-25.76 2.67,-51.47 0,0 55.64,-83.53 -7.66,-121.67 -51.47,17.73 -5.27,24.19 -23.99,81.17 -15.73,47.9 -11.87,45.91 -8.38,101.33l37.36 -9.36z"/>
    <path class="fil1 str2" d="M19614.38 11233.92c90.67,-24.6 55.12,26.75 166.97,-7.6l-23 -38.18c-36.81,2.24 -13.44,16.13 -42.6,7.06 -15.16,-4.72 -48.17,-42.63 -125.97,9.71l24.6 29.01z"/>
    <g transform="matrix(0.9786 0 0 1 -7769.11 2387.12)"/>
  </g>
</svg>